<svg xmlns="http://www.w3.org/2000/svg" viewBox="0 0 14.926 14.039">
  <defs>
    <style>
      .cls-1 {
        fill: none;
      }

      .cls-2, .cls-3 {
        stroke: none;
      }

      .cls-3 {
        fill: #707070;
      }
    </style>
  </defs>
  <g id="ico-star-g" class="cls-1" transform="translate(0)">
    <path class="cls-2" d="M14.9,5.3a.578.578,0,0,0-.55-.4H9.485L7.985.376A.558.558,0,0,0,7.438,0h0a.555.555,0,0,0-.547.379L5.412,4.9H.577A.576.576,0,0,0,.241,5.947L4.156,8.755,2.677,13.284a.575.575,0,0,0,.547.755.593.593,0,0,0,.336-.107l3.906-2.805,3.906,2.8a.564.564,0,0,0,.336.107.577.577,0,0,0,.547-.758l-1.491-4.52,3.924-2.818A.573.573,0,0,0,14.9,5.3Z"/>
    <path class="cls-3" d="M 7.441330909729004 1.913071632385254 L 6.3623046875 5.212584495544434 L 6.136924743652344 5.901754379272461 L 5.411834716796875 5.901754379272461 L 1.893755912780762 5.901754379272461 L 4.738764762878418 7.942784309387207 L 5.333774566650391 8.369653701782227 L 5.10643482208252 9.065763473510742 L 4.029394149780273 12.36363124847412 L 6.882044792175293 10.31455421447754 L 7.465124607086182 9.895724296569824 L 8.04842472076416 10.31425380706787 L 10.8977222442627 12.35870838165283 L 9.813175201416016 9.071714401245117 L 9.583094596862793 8.374393463134766 L 10.17954444885254 7.946094036102295 L 13.03080463409424 5.898704528808594 L 9.485424041748047 5.898704528808594 L 8.763584136962891 5.898704528808594 L 8.536294937133789 5.213583946228027 L 7.441330909729004 1.913071632385254 M 7.437934875488281 3.814697265625e-06 C 7.685464859008789 3.814697265625e-06 7.905494689941406 0.1375141143798828 7.984954833984375 0.3758840560913086 L 9.485424041748047 4.898704528808594 L 14.34745502471924 4.898704528808594 C 14.59803485870361 4.898704528808594 14.82112503051758 5.060664176940918 14.8975248336792 5.299034118652344 C 14.97392463684082 5.537394523620605 14.88835430145264 5.797154426574707 14.68666458129883 5.940784454345703 L 10.76281452178955 8.758374214172363 L 12.25411415100098 13.2781343460083 C 12.33357429504395 13.51344394683838 12.25106430053711 13.77625370025635 12.04936504364014 13.92294406890869 C 11.94546508789062 13.99934387207031 11.82628440856934 14.03601455688477 11.70710468292236 14.03601455688477 C 11.58792495727539 14.03601455688477 11.47179412841797 14.00239372253418 11.37094497680664 13.92905426025391 L 7.465444564819336 11.12674427032471 L 3.559925079345703 13.93210411071777 C 3.459084510803223 14.00239372253418 3.33990478515625 14.03906440734863 3.223774909973145 14.03906440734863 C 3.104594230651855 14.03906440734863 2.985414505004883 14.00239372253418 2.884564399719238 13.92905426025391 C 2.68287467956543 13.7793140411377 2.600364685058594 13.52261447906494 2.676754951477051 13.28424453735352 L 4.155844688415527 8.755313873291016 L 0.2411651611328125 5.946893692016602 C 0.03641510009765625 5.800204277038574 -0.04915523529052734 5.540453910827637 0.02724456787109375 5.302083969116211 C 0.1066951751708984 5.063724517822266 0.3267250061035156 4.901754379272461 0.5773143768310547 4.901754379272461 L 5.411834716796875 4.901754379272461 L 6.890914916992188 0.3789339065551758 C 6.967314720153809 0.1405744552612305 7.187344551086426 3.814697265625e-06 7.437934875488281 3.814697265625e-06 Z"/>
  </g>
</svg>
