<svg xmlns="http://www.w3.org/2000/svg" width="29.652" height="29" viewBox="0 0 29.652 29"><path d="M14.825,0C6.631,0,0,5.364,0,11.984c0,4.623,3.229,8.628,7.954,10.625L7.989,29l4.76-5.159a17.626,17.626,0,0,0,2.078.137c8.194,0,14.825-5.364,14.825-11.995S23.019,0,14.825,0Zm0,22.825a17.915,17.915,0,0,1-2.51-.183l-3.2,3.378V21.831C4.4,20.119,1.129,16.364,1.129,11.984c0-5.981,6.129-10.83,13.7-10.83S28.52,6,28.52,11.984,22.391,22.825,14.825,22.825Z" transform="translate(0 0)" fill="#9392c5"/><path d="M32.572,48.65A2.052,2.052,0,1,0,34.624,50.7,2.054,2.054,0,0,0,32.572,48.65Zm0,3.057A1.005,1.005,0,1,1,33.577,50.7,1.007,1.007,0,0,1,32.572,51.707Z" transform="translate(-23.865 -38.042)" fill="#9392c5"/><path d="M88.372,48.65A2.052,2.052,0,1,0,90.424,50.7,2.054,2.054,0,0,0,88.372,48.65ZM89.377,50.7A1.005,1.005,0,1,1,88.372,49.7,1.007,1.007,0,0,1,89.377,50.7Z" transform="translate(-67.498 -38.042)" fill="#9392c5"/><path d="M60.472,48.65A2.052,2.052,0,1,0,62.524,50.7,2.054,2.054,0,0,0,60.472,48.65Zm1,2.052A1.005,1.005,0,1,1,60.47,49.7,1.007,1.007,0,0,1,61.475,50.7Z" transform="translate(-45.682 -38.042)" fill="#9392c5"/></svg>