<svg xmlns="http://www.w3.org/2000/svg" viewBox="0 0 23.822 6.498"><defs><style>.a{fill:#666;}</style></defs><g transform="translate(0 0)"><path class="a" d="M3.249,0A3.249,3.249,0,1,0,6.5,3.249,3.252,3.252,0,0,0,3.249,0ZM4.7,3.249A1.454,1.454,0,1,1,3.249,1.795,1.455,1.455,0,0,1,4.7,3.249Z"/><path class="a" d="M64.249,0A3.249,3.249,0,1,0,67.5,3.249,3.252,3.252,0,0,0,64.249,0ZM65.7,3.249a1.454,1.454,0,1,1-1.454-1.454A1.455,1.455,0,0,1,65.7,3.249Z" transform="translate(-43.676)"/><path class="a" d="M33.749,0A3.249,3.249,0,1,0,37,3.249,3.252,3.252,0,0,0,33.749,0ZM35.2,3.249a1.454,1.454,0,1,1-1.454-1.454A1.455,1.455,0,0,1,35.2,3.249Z" transform="translate(-21.838)"/></g></svg>