<svg xmlns="http://www.w3.org/2000/svg" width="32" height="32" viewBox="0 0 32 32">
  <g id="グループ_501" data-name="グループ 501" transform="translate(-119 -37)">
    <path id="パス_166" data-name="パス 166" d="M16,0A16,16,0,1,1,0,16,16,16,0,0,1,16,0Z" transform="translate(119 37)" fill="#666"/>
    <path id="パス_152" data-name="パス 152" d="M331.611,42.518c0-4.564-4.576-8.277-10.2-8.277s-10.2,3.713-10.2,8.277c0,4.092,3.629,7.519,8.53,8.166.332.072.784.219.9.5a2.1,2.1,0,0,1,.033.922s-.12.72-.146.873c-.044.258-.2,1.009.884.55a32.937,32.937,0,0,0,8.014-5.922h0A7.364,7.364,0,0,0,331.611,42.518Zm-13.8,2.437a.2.2,0,0,1-.2.2h-2.858a.2.2,0,0,1-.137-.056l0,0,0,0a.2.2,0,0,1-.056-.137h0V40.511a.2.2,0,0,1,.2-.2h.716a.2.2,0,0,1,.2.2v3.53h1.944a.2.2,0,0,1,.2.2Zm1.725,0a.2.2,0,0,1-.2.2h-.716a.2.2,0,0,1-.2-.2V40.511a.2.2,0,0,1,.2-.2h.716a.2.2,0,0,1,.2.2Zm4.925,0a.2.2,0,0,1-.2.2h-.716a.189.189,0,0,1-.051-.007h0l-.014,0-.006,0-.01,0-.009,0-.006,0-.012-.007,0,0a.2.2,0,0,1-.05-.049l-2.039-2.754v2.639a.2.2,0,0,1-.2.2h-.716a.2.2,0,0,1-.2-.2V40.511a.2.2,0,0,1,.2-.2h.752l.011,0,.007,0,.012,0,.007,0,.011,0,.006,0,.01.006.006,0,.01.007.005,0,.01.009,0,0,.012.012h0l.015.02,2.037,2.751v-2.64a.2.2,0,0,1,.2-.2h.716a.2.2,0,0,1,.2.2Zm3.951-3.729a.2.2,0,0,1-.2.2H326.27v.751h1.944a.2.2,0,0,1,.2.2v.716a.2.2,0,0,1-.2.2H326.27v.751h1.944a.2.2,0,0,1,.2.2v.716a.2.2,0,0,1-.2.2h-2.858a.2.2,0,0,1-.137-.056l0,0,0,0a.2.2,0,0,1-.056-.137h0V40.512h0a.2.2,0,0,1,.055-.137l0,0,0,0a.2.2,0,0,1,.138-.056h2.858a.2.2,0,0,1,.2.2Z" transform="translate(-186.3 9.465)" fill="#ebebeb"/>
  </g>
</svg>
