<svg xmlns="http://www.w3.org/2000/svg" width="32" height="32" viewBox="0 0 32 32">
  <g id="グループ_500" data-name="グループ 500" transform="translate(-7 -37)">
    <path id="パス_165" data-name="パス 165" d="M16,0A16,16,0,1,1,0,16,16,16,0,0,1,16,0Z" transform="translate(7 37)" fill="#666"/>
    <path id="パス_15" data-name="パス 15" d="M227.207,207.061a11.4,11.4,0,0,0,11.479-11.479c0-.175,0-.349-.011-.522a8.209,8.209,0,0,0,2.013-2.089,8.052,8.052,0,0,1-2.317.635,4.049,4.049,0,0,0,1.774-2.232,8.085,8.085,0,0,1-2.562.979,4.038,4.038,0,0,0-6.875,3.679,11.454,11.454,0,0,1-8.316-4.215,4.037,4.037,0,0,0,1.249,5.386,4.005,4.005,0,0,1-1.827-.5c0,.017,0,.034,0,.051a4.036,4.036,0,0,0,3.237,3.955,4.024,4.024,0,0,1-1.822.069,4.039,4.039,0,0,0,3.769,2.8,8.1,8.1,0,0,1-5.011,1.727,8.233,8.233,0,0,1-.962-.056,11.422,11.422,0,0,0,6.184,1.812" transform="translate(-207.023 -145.522)" fill="#ebebeb"/>
  </g>
</svg>
