<svg xmlns="http://www.w3.org/2000/svg" viewBox="0 0 34.889 34.575"><defs><style>.a{fill:#fff;}</style></defs><g transform="translate(-1.635 -8)"><g transform="translate(1.635 8)"><path class="a" d="M24.229,7.818C22.975,3.342,18.1,0,12.276,0,5.492,0,0,4.514,0,10.088a9.326,9.326,0,0,0,3.877,7.339V22.7l3.2-3.48a7.681,7.681,0,0,0,.762.252C8.593,24.828,14.343,29,21.321,29c.22,0,.426-.013.646-.025l5.169,5.6v-6.62c4.574-1.715,7.753-5.4,7.753-9.672C34.889,13.152,30.328,8.865,24.229,7.818ZM7.766,18.12a11.247,11.247,0,0,1-1.137-.467L5.182,19.192V16.834a8.271,8.271,0,0,1-3.89-6.746c0-4.88,4.923-8.827,10.984-8.827,5,0,9.226,2.7,10.544,6.38a14.725,14.725,0,0,0-1.5-.076C13.9,7.566,7.882,12.282,7.766,18.12Zm18.065,8.953v3.985l-3.192-3.379c-.426.038-.866.063-1.318.063-6.784,0-12.276-4.237-12.276-9.457s5.492-9.457,12.276-9.457S33.6,13.064,33.6,18.284C33.6,22.281,30.379,25.686,25.831,27.073Z"/><g transform="translate(17.413 11.489)"><path class="a" d="M16.926,22.528h.742v.742h-.742ZM17.668,9.88a3.7,3.7,0,0,0-3.7,3.7h.742a2.956,2.956,0,1,1,4.138,2.708c-.577.247-1.925.784-1.925,2.09v1.842h.742V18.376c0-.742.564-1.017,1.471-1.416a3.7,3.7,0,0,0-1.471-7.08Z" transform="translate(-13.626 -9.536)"/><path class="a" d="M18.106,23.708h-1.43v-1.43h1.43Zm-.742-.687h.055v-.055h-.055Zm.742-2.351h-1.43V18.484c0-1.485,1.43-2.1,2.048-2.378a2.652,2.652,0,0,0,1.65-2.433,2.612,2.612,0,1,0-5.224,0v.344H13.72v-.344a4.042,4.042,0,1,1,5.664,3.7c-.962.426-1.265.632-1.265,1.1v2.2Zm-.742-.687h.055v-1.5c0-1,.811-1.347,1.677-1.732a3.35,3.35,0,1,0-4.674-3.41h.055a3.3,3.3,0,1,1,4.606,3.368c-.646.289-1.719.742-1.719,1.774Z" transform="translate(-13.72 -9.63)"/></g></g></g></svg>