<svg xmlns="http://www.w3.org/2000/svg" viewBox="0 0 172.897 53.014"><defs><style>.a{fill:#666;}</style></defs><g transform="translate(0 0)"><g transform="translate(0 10.572)"><path class="a" d="M.2,20.6V52.521H3.279V36.2l6.62.051V33.173H3.228V23.628H9.9V20.6Z" transform="translate(-0.2 -20.6)"/></g><g transform="translate(17.038 10.572)"><path class="a" d="M33.4,20.6V52.521H43.767l.051-3.079H36.479V36.2h7.39V33.173l-7.39.051v-9.6h7.339V20.6Z" transform="translate(-33.4 -20.6)"/></g><g transform="translate(36.078 10.521)"><path class="a" d="M70.5,20.5V52.472H81.123V49.393l-7.339.051V20.551Z" transform="translate(-70.5 -20.5)"/></g><g transform="translate(51.679 10.572)"><path class="a" d="M104,20.6V52.521h3.079V20.6Z" transform="translate(-102.409 -20.6)"/><path class="a" d="M104.031,97.361a3.131,3.131,0,1,0-3.131-3.131A3.143,3.143,0,0,0,104.031,97.361Z" transform="translate(-100.9 -54.919)"/></g><g transform="translate(99.664)"><path class="a" d="M200.579,52.321V20.4H197.5V52.321Z" transform="translate(-195.909 -9.931)"/><path class="a" d="M197.531,0A3.11,3.11,0,0,0,194.4,3.131a3.131,3.131,0,1,0,6.261,0A3.11,3.11,0,0,0,197.531,0Z" transform="translate(-194.4 0)"/></g><g transform="translate(60.66 10.623)"><path class="a" d="M126.509,48.515c4.414-4.927,2.669-11.547,3.131-15.4.718-5.9,3.849-9.6,8.776-9.494a27.8,27.8,0,0,0,0-2.925c-3.849.411-6.877,1.745-8.93,4.362-4.157,5.337-2.412,10.521-2.925,16.884a8.641,8.641,0,0,1-8.16,7.7s.051,2.925,0,2.925A10.959,10.959,0,0,0,126.509,48.515Z" transform="translate(-118.4 -20.7)"/></g><g transform="translate(77.134 10.623)"><path class="a" d="M158.609,48.515c4.414-4.927,2.669-11.547,3.131-15.4.718-5.9,3.9-9.6,8.776-9.494a27.8,27.8,0,0,0,0-2.925c-3.849.411-6.877,1.745-8.93,4.362-4.157,5.337-2.412,10.521-2.925,16.884a8.641,8.641,0,0,1-8.16,7.7s.051,2.925,0,2.925A10.959,10.959,0,0,0,158.609,48.515Z" transform="translate(-150.5 -20.7)"/></g><g transform="translate(114.7 10.521)"><path class="a" d="M223.7,52.472V20.551h3.028l5.953,10.982,5.9-10.982,2.925-.051V52.472h-2.977V26.966l-5.851,10.726-6-10.572V52.472Z" transform="translate(-223.7 -20.5)"/></g><path class="a" d="M271.7,34.782a16.782,16.782,0,1,1,16.782,16.782A16.755,16.755,0,0,1,271.7,34.782Zm16.782,13.651a13.651,13.651,0,1,0-13.651-13.651A13.645,13.645,0,0,0,288.482,48.433Z" transform="translate(-132.366 -8.762)"/></g></svg>