<svg xmlns="http://www.w3.org/2000/svg" viewBox="0 0 161.067 49.052"><defs><style>.a{fill:#fff;}</style></defs><g transform="translate(0 0.006)"><path class="a" d="M120.395,16.208c.109.027.219.055.328.079V39.24h2.608V9.919c-1.852-.513-2.882.079-3.668,1.764-1.266,2.724-2.83,5.311-4.424,8.244-1.609-2.961-3.073-5.645-4.534-8.332-1.136-2.092-1.23-2.138-3.686-1.582V39.225h2.693V16.542l.313-.064c1.7,2.979,3.4,5.958,5.217,9.137C117.07,22.275,118.734,19.241,120.395,16.208ZM25.513,12.567V9.922H16.045V39.177h9.438V36.514h-6.72V24.17h6.766V21.4H18.79V12.567ZM2.949,21.4V12.473H8.894V9.916H0V39.2H2.86V24.27h6V21.4C6.823,21.4,4.919,21.4,2.949,21.4ZM43.5,36.471c-1.846,0-3.556-.061-5.256.021-1.257.061-1.615-.395-1.606-1.646.055-7.731.027-15.459.027-23.19V9.864H33.688V39.186H43.5ZM90.481,9.91A10.875,10.875,0,0,0,79.726,20.18c-.216,3.018-.085,6.061-.264,9.085a7.985,7.985,0,0,1-5.845,7.151c-1.968.556-1.986.589-1.515,2.9a14.936,14.936,0,0,0,1.752-.222A11.089,11.089,0,0,0,82.1,29.308c.24-2.76.091-5.557.331-8.32.37-4.3,2.715-7.415,6.009-8.275.665-.173,1.354-.249,2.11-.386,0-.544.006-.993,0-1.442C90.539,10.59,90.509,10.3,90.481,9.91ZM56.675,39.322a12.254,12.254,0,0,0,1.843-.231,10.64,10.64,0,0,0,8.068-8.906,50.853,50.853,0,0,0,.337-7.558c.106-5.909,2.5-8.982,8.168-10.337V9.946a10.531,10.531,0,0,0-10.51,9.131c-.422,3.188-.237,6.456-.38,9.684a7.972,7.972,0,0,1-5.035,7.318,18.239,18.239,0,0,1-2.49.732C56.675,37.6,56.675,38.387,56.675,39.322Zm40.438-.106V9.8H94.474V39.216Zm-44.781.049V9.919H49.751V39.265ZM95.677,5.78A2.98,2.98,0,0,0,98.7,3.008,2.922,2.922,0,0,0,92.856,2.8,2.986,2.986,0,0,0,95.677,5.78ZM51.1,49.046a2.791,2.791,0,0,0,2.854-2.854,2.878,2.878,0,0,0-2.836-2.912,2.963,2.963,0,0,0-2.964,2.97A2.872,2.872,0,0,0,51.1,49.046Z" transform="translate(0 0)"/><path class="a" d="M443.182,59.3A15.523,15.523,0,1,1,458.836,44.07,15.572,15.572,0,0,1,443.182,59.3ZM430.556,43.755a12.7,12.7,0,1,0,12.635-12.666A12.716,12.716,0,0,0,430.556,43.755Z" transform="translate(-297.769 -19.676)"/><path class="a" d="M365.806,38.489c-1.661,3.034-3.325,6.067-5.153,9.4-1.816-3.179-3.516-6.158-5.217-9.137l-.313.064V61.5H352.43V32.291c2.454-.553,2.551-.51,3.686,1.582,1.461,2.687,2.924,5.375,4.534,8.332,1.594-2.93,3.158-5.517,4.424-8.244.783-1.685,1.813-2.277,3.668-1.764V61.518h-2.608V38.565C366.025,38.54,365.916,38.516,365.806,38.489Z" transform="translate(-245.412 -22.281)"/><path class="a" d="M62.308,35.335H55.585v8.836h6.738v2.766H55.558V59.281h6.72v2.663H52.84V32.69h9.468Z" transform="translate(-36.795 -22.768)"/><path class="a" d="M2.955,44.161H8.868v2.873h-6V61.968H.01V32.68H8.9v2.557H2.959C2.955,38.231,2.955,41.082,2.955,44.161Z" transform="translate(-0.007 -22.761)"/><path class="a" d="M120.748,59.107v2.715H110.94V32.5h2.973v1.792c0,7.731.027,15.459-.027,23.19-.009,1.251.346,1.707,1.606,1.646C117.192,59.043,118.9,59.107,120.748,59.107Z" transform="translate(-77.252 -22.636)"/><path class="a" d="M255.238,32.65c.027.383.058.68.064.975.009.449,0,.9,0,1.442-.756.134-1.445.213-2.11.386-3.295.859-5.639,3.978-6.009,8.275-.24,2.763-.091,5.557-.331,8.32a11.089,11.089,0,0,1-8.244,9.787,15.608,15.608,0,0,1-1.752.222c-.471-2.311-.452-2.344,1.515-2.9a7.989,7.989,0,0,0,5.845-7.151c.179-3.021.049-6.064.264-9.085A10.879,10.879,0,0,1,255.238,32.65Z" transform="translate(-164.757 -22.74)"/><path class="a" d="M186.64,62.154V59.649a18.24,18.24,0,0,0,2.49-.732,7.959,7.959,0,0,0,5.035-7.318c.143-3.228-.043-6.5.38-9.684a10.526,10.526,0,0,1,10.51-9.131v2.344c-5.669,1.351-8.062,4.427-8.168,10.337a50.871,50.871,0,0,1-.337,7.558,10.64,10.64,0,0,1-8.068,8.906A13.091,13.091,0,0,1,186.64,62.154Z" transform="translate(-129.965 -22.832)"/><path class="a" d="M313.759,61.7H311.12V32.28h2.639Z" transform="translate(-216.646 -22.482)"/><path class="a" d="M166.421,62.026H163.84V32.68h2.581Z" transform="translate(-114.089 -22.761)"/><path class="a" d="M308.609,5.78A2.988,2.988,0,0,1,305.788,2.8a2.922,2.922,0,0,1,5.839.206A2.976,2.976,0,0,1,308.609,5.78Z" transform="translate(-212.932 0)"/><path class="a" d="M161.534,148.3a2.871,2.871,0,0,1-2.945-2.8,2.963,2.963,0,0,1,2.964-2.97,2.879,2.879,0,0,1,2.836,2.912A2.79,2.79,0,0,1,161.534,148.3Z" transform="translate(-110.431 -99.253)"/></g></svg>